<svg class="ldi-k9i3hz" width="200px"  height="200px"  xmlns="http://www.w3.org/2000/svg" xmlns:xlink="http://www.w3.org/1999/xlink" viewBox="0 0 100 100" preserveAspectRatio="xMidYMid" style="background: rgba(0, 0, 0, 0) none repeat scroll 0% 0%;"><!--?xml version="1.0" encoding="utf-8"?--><!--Generator: Adobe Illustrator 21.0.0, SVG Export Plug-In . SVG Version: 6.00 Build 0)--><svg version="1.1" id="圖層_1" xmlns="http://www.w3.org/2000/svg" xmlns:xlink="http://www.w3.org/1999/xlink" x="0px" y="0px" viewBox="0 0 100 100" style="transform-origin: 50px 50px 0px;" xml:space="preserve"><g style="transform-origin: 50px 50px 0px;"><g style="transform-origin: 50px 50px 0px; transform: scale(0.6);"><g style="transform-origin: 50px 50px 0px;"><g><style type="text/css" style="transform-origin: 50px 50px 0px; animation-duration: 1.4s; animation-delay: -1.4s; animation-direction: normal;" class="ld ld-spin">.st0{fill:#D1D1D1;} .st1{fill:#454545;} .st2{fill:#464646;} .st3{fill:#474747;} .st4{fill:#494949;} .st5{fill:#D1D2D1;}</style><g style="transform-origin: 50px 50px 0px; animation-duration: 1.4s; animation-delay: -1.28333s; animation-direction: normal;" class="ld ld-spin"><path class="st0" d="M50,92.5c-0.319,0-0.642-0.046-0.959-0.14c-0.524-0.156-0.987-0.432-1.363-0.793 c-0.168-0.161-0.322-0.341-0.456-0.54c-4.79-7.061-9.248-8.924-15.418-11.502c-1.864-0.779-3.792-1.584-5.907-2.6 c-9.297-4.463-12.672-17.359-12.672-24.938c0-1.31,0.762-2.5,1.951-3.049c0.449-0.207,0.929-0.309,1.406-0.309 c0.784,0,1.56,0.274,2.18,0.803l7.998,6.824c1.105,0.943,1.478,2.489,0.925,3.832c-0.237,0.575-0.62,1.057-1.095,1.411 c2.586,2.049,7.59,3.883,15.14,3.968c1.734-6.295,2.586-15.053,2.205-22.793c-1.537-0.311-3.497-0.476-5.725-0.476 c-0.768,0-1.479,0.019-2.095,0.046c-1.153,1.365-2.602,1.505-3.142,1.505c-2.793,0-4.669-2.628-4.669-6.539s1.876-6.539,4.669-6.539 c0.553,0,2.056,0.147,3.219,1.598c0.901,0.069,2,0.126,3.186,0.126c0.911,0,1.769-0.035,2.562-0.102 c-3.557-2.58-5.649-6.647-5.649-11.085C36.29,13.65,42.44,7.5,50,7.5s13.71,6.15,13.71,13.71c0,4.394-2.103,8.478-5.591,11.043 c0.598,0.037,1.227,0.056,1.882,0.056c1.021,0,1.988-0.045,2.828-0.105c1.157-1.389,2.621-1.53,3.161-1.53 c2.793,0,4.67,2.628,4.67,6.539s-1.876,6.539-4.67,6.539c-0.521,0-1.912-0.132-3.051-1.404c-0.601-0.025-1.269-0.042-1.973-0.042 c-2.593,0-4.381,0.22-5.59,0.482c-0.132,7.167,1.031,16.003,2.977,22.644c7.481-0.135,12.45-1.938,15.033-3.949 c-0.464-0.353-0.838-0.828-1.071-1.393c-0.553-1.343-0.179-2.889,0.925-3.832l7.998-6.824c0.62-0.529,1.396-0.803,2.18-0.803 c0.476,0,0.956,0.101,1.406,0.309c1.19,0.549,1.951,1.739,1.951,3.049c0,7.579-3.375,20.475-12.672,24.938 c-2.116,1.016-4.043,1.821-5.907,2.6c-6.17,2.578-10.628,4.441-15.418,11.502C52.142,91.965,51.092,92.5,50,92.5z M50,19.251 c-1.08,0-1.958,0.879-1.958,1.958S48.92,23.168,50,23.168c1.08,0,1.958-0.879,1.958-1.958S51.08,19.251,50,19.251z" fill="rgba(59.477409116683454%,58.216040938162415%,58.216040938162415%,0.343)" style="fill: rgba(152, 148, 148, 0.34);"></path></g><g style="transform-origin: 50px 50px 0px; animation-duration: 1.4s; animation-delay: -1.16667s; animation-direction: normal;" class="ld ld-spin"><path class="st1" d="M75.42,58.811l3.431-0.257c-0.341,5.663-9.035,10.617-22.953,10.22c-2.839-8.127-4.311-19.908-3.785-28.443 c3.582-1.698,10.023-1.443,12.823-1.232c0.239,0.783,0.621,1.294,1.054,1.294c0.724,0,1.312-1.424,1.312-3.182 c0-1.757-0.588-3.182-1.312-3.182c-0.443,0-0.834,0.535-1.072,1.351c-2.535,0.286-8.051,0.68-12.043-0.658 c0.477-2.009,1.157-3.551,2.062-4.416c3.224-1.756,5.416-5.176,5.416-9.097c0-5.708-4.644-10.352-10.352-10.352 S39.647,15.502,39.647,21.21c0,3.736,1.99,7.015,4.964,8.836c0.743,0.968,1.344,2.651,1.795,4.82 c-4.268,1.385-10.474,0.795-12.346,0.571c-0.236-0.848-0.636-1.406-1.088-1.406c-0.725,0-1.312,1.425-1.312,3.182 s0.587,3.182,1.312,3.182c0.449,0,0.845-0.548,1.082-1.384c1.989-0.164,8.935-0.583,13.076,1.112 c0.729,8.691-0.137,20.65-2.914,28.673c-14.107,0.504-22.722-4.519-23.066-10.24l3.431,0.257l-7.998-6.824 c0,6.313,2.906,18.137,10.767,21.912C36.608,78.344,43.139,79.027,50,89.142v-0.01v0.01c6.861-10.115,13.392-10.799,22.65-15.244 c7.862-3.774,10.767-15.599,10.767-21.912L75.42,58.811z M44.684,21.21c0-2.931,2.385-5.316,5.316-5.316 c2.931,0,5.316,2.385,5.316,5.316s-2.385,5.316-5.316,5.316C47.068,26.526,44.684,24.141,44.684,21.21z" fill="rgba(4.83023472759494%,47.399064244167185%,87.99353814894152%,0.695)" style="fill: rgba(12, 121, 224, 0.694); stroke: rgb(20, 128, 171);" stroke="#1480ab"></path></g><metadata xmlns:d="https://loading.io/stock/" style="transform-origin: 50px 50px 0px; animation-duration: 1.4s; animation-delay: -1.05s; animation-direction: normal;" class="ld ld-spin">
<d:name style="transform-origin: 50px 50px 0px; animation-duration: 1.4s; animation-delay: -0.933333s; animation-direction: normal;" class="ld ld-spin">marina</d:name>
<d:tags style="transform-origin: 50px 50px 0px; animation-duration: 1.4s; animation-delay: -0.816667s; animation-direction: normal;" class="ld ld-spin">anchor,ship,cruise,navy,sailor,marina,map</d:tags>
<d:license style="transform-origin: 50px 50px 0px; animation-duration: 1.4s; animation-delay: -0.7s; animation-direction: normal;" class="ld ld-spin">cc0</d:license>
<d:slug style="transform-origin: 50px 50px 0px; animation-duration: 1.4s; animation-delay: -0.583333s; animation-direction: normal;" class="ld ld-spin">k9i3hz</d:slug>
</metadata></g></g></g></g><style type="text/css" style="transform-origin: 50px 50px 0px; animation-duration: 1.4s; animation-delay: -0.466667s; animation-direction: normal;" class="ld ld-spin">path,ellipse,circle,rect,polygon,polyline,line { stroke-width: 0; }@keyframes ld-spin {
  0% {
    -webkit-transform: rotate(0);
    transform: rotate(0);
    animation-timing-function: cubic-bezier(0.55, 0.055, 0.675, 0.19);
  }
  50% {
    -webkit-transform: rotate(180deg);
    transform: rotate(180deg);
    animation-timing-function: cubic-bezier(0.215, 0.61, 0.355, 1);
  }
  100% {
    -webkit-transform: rotate(360deg);
    transform: rotate(360deg);
  }
}
@-webkit-keyframes ld-spin {
  0% {
    -webkit-transform: rotate(0);
    transform: rotate(0);
    animation-timing-function: cubic-bezier(0.55, 0.055, 0.675, 0.19);
  }
  50% {
    -webkit-transform: rotate(180deg);
    transform: rotate(180deg);
    animation-timing-function: cubic-bezier(0.215, 0.61, 0.355, 1);
  }
  100% {
    -webkit-transform: rotate(360deg);
    transform: rotate(360deg);
  }
}
.ld.ld-spin {
  -webkit-animation: ld-spin 1s infinite;
  animation: ld-spin 1s infinite;
}
</style></svg></svg>